# xmcd
#
# Track frame offsets:
#	150
#	4714
#	20445
#	37631
#	53488
#	71520
#	91833
#	109192
#	122148
#	139464
#	151537
#	168373
#
# Disc length: 2439 seconds
# Revision: 0
# Processed by: cddbd v1.5.2PL0 Copyright (c) Steve Scherf et al.
# Submitted via: dBpowerAMP V12.0
#
DISCID=8709850c
DTITLE=Town Mountain - Southern Crescent
DYEAR=2016
DGENRE=Country
TTITLE0=St. Augustine
TTITLE1=Ain't Gonna Worry Me
TTITLE2=Comin' Back to You
TTITLE3=Southern Crescent
TTITLE4=House With No Windows
TTITLE5=Wildbird
TTITLE6=Long Time Comin'
TTITLE7=I Miss the Night
TTITLE8=Leroy's Reel
TTITLE9=Tick On a Dog
TTITLE10=Arkansas Gambler
TTITLE11=Whiskey With Tears
EXTD=
EXTT0=
EXTT1=
EXTT2=
EXTT3=
EXTT4=
EXTT5=
EXTT6=
EXTT7=
EXTT8=
EXTT9=
EXTT10=
EXTT11=
PLAYORDER=
